<svg width="128" height="128" viewBox="0 0 128 128" fill="none" xmlns="http://www.w3.org/2000/svg">
<rect width="128" height="128" fill="#0E0E0E"/>
<path d="M12.2727 22.3977V57.3068H7.17614V22.3977H12.2727Z" fill="white"/>
<path d="M19.1293 57.3068V31.125H24.2259V57.3068H19.1293ZM21.7031 27.0852C20.8168 27.0852 20.0554 26.7898 19.419 26.1989C18.794 25.5966 18.4815 24.8807 18.4815 24.0511C18.4815 23.2102 18.794 22.4943 19.419 21.9034C20.0554 21.3011 20.8168 21 21.7031 21C22.5895 21 23.3452 21.3011 23.9702 21.9034C24.6065 22.4943 24.9247 23.2102 24.9247 24.0511C24.9247 24.8807 24.6065 25.5966 23.9702 26.1989C23.3452 26.7898 22.5895 27.0852 21.7031 27.0852Z" fill="white"/>
<path d="M31.4915 57.3068V22.3977H36.5881V35.3693H36.8949C37.1903 34.8239 37.6165 34.1932 38.1733 33.4773C38.7301 32.7614 39.5028 32.1364 40.4915 31.6023C41.4801 31.0568 42.7869 30.7841 44.4119 30.7841C46.5256 30.7841 48.4119 31.3182 50.071 32.3864C51.7301 33.4545 53.0313 34.9943 53.9744 37.0057C54.929 39.017 55.4062 41.4375 55.4062 44.267C55.4062 47.0966 54.9347 49.5227 53.9915 51.5455C53.0483 53.5568 51.7528 55.108 50.1051 56.1989C48.4574 57.2784 46.5767 57.8182 44.4631 57.8182C42.8722 57.8182 41.571 57.5511 40.5597 57.017C39.5597 56.483 38.7756 55.858 38.2074 55.142C37.6392 54.4261 37.2017 53.7898 36.8949 53.233H36.4688V57.3068H31.4915ZM36.4858 44.2159C36.4858 46.0568 36.7528 47.6705 37.2869 49.0568C37.821 50.4432 38.5938 51.5284 39.6051 52.3125C40.6165 53.0852 41.8551 53.4716 43.321 53.4716C44.8437 53.4716 46.1165 53.0682 47.1392 52.2614C48.1619 51.4432 48.9347 50.3352 49.4574 48.9375C49.9915 47.5398 50.2585 45.9659 50.2585 44.2159C50.2585 42.4886 49.9972 40.9375 49.4744 39.5625C48.9631 38.1875 48.1903 37.1023 47.1562 36.3068C46.1335 35.5114 44.8551 35.1136 43.321 35.1136C41.8437 35.1136 40.5937 35.4943 39.571 36.2557C38.5597 37.017 37.7926 38.0795 37.2699 39.4432C36.7472 40.8068 36.4858 42.3977 36.4858 44.2159Z" fill="white"/>
<path d="M65.75 40.3068C65.75 38.0977 67.5409 36.3068 69.75 36.3068H118.75C120.959 36.3068 122.75 38.0977 122.75 40.3068C122.75 42.516 120.959 44.3068 118.75 44.3068H69.75C67.5409 44.3068 65.75 42.516 65.75 40.3068Z" fill="#14F9A6"/>
<path d="M6 71.3977H17.7955L25.9091 91.1705H26.3182L34.4318 71.3977H46.2273V106.307H36.9545V86.125H36.6818L28.9091 106.034H23.3182L15.5455 85.9886H15.2727V106.307H6V71.3977Z" fill="white"/>
<path d="M53.5988 106.307V71.3977H78.7578V79.0341H63.076V85.0341H77.4624V92.6705H63.076V98.6705H78.6897V106.307H53.5988Z" fill="white"/>
<path d="M95.8836 71.3977L103.043 96.0114H103.315L110.474 71.3977H121.179L109.656 106.307H96.7018L85.179 71.3977H95.8836Z" fill="white"/>
</svg>
